<svg id="Capa_1" data-name="Capa 1" xmlns="http://www.w3.org/2000/svg" viewBox="0 0 243.37 119.68"><defs><style>.cls-1{fill:#fa206f;}</style></defs><path class="cls-1" d="M56,100.7,27.82,118.76,13.59,90.21,34.93,79.63l7.12,14-7.48,3.74-3.38-6.57L24.81,94l6.38,12.77,15.6-10L38.4,48.8H15.23L8.12,78.53,0,76.52,17,5.75,38.31,0ZM36.94,40.5,31.65,10.4,24,12.5l-6.75,28Z"/><path class="cls-1" d="M105.81,26.54V74.06h-8.3V34.84H96.05l-11.4,13.5V79.08H76.26V34.84H74.8L63.4,47.52V74.06H55.1V30.74h8.3V35l7.66-8.48H84.65v8.94l7.57-8.94Z"/><path class="cls-1" d="M111.65,74.7l-2.19-39.31,8.3-.46,1.83,31.38h17.69V36.21H128.8l.36,13.23h3.11v8.3H121.05l-.82-29.92h25.35V74.7Z"/><path class="cls-1" d="M168.84,52.08,178,73.52,170.3,76.8l-6.38-15L156.71,76l-7.48-3.83,10.49-20.34-8.3-19.52,7.66-3.19,5.57,13,8.48-16.6,7.48,3.74Z"/><path class="cls-1" d="M184.63,78.81V23.26h-4V15h4V7.48h8.3V15h5.38v8.3h-5.38V69.32l14.32-2,1.09,8.3Z"/><path class="cls-1" d="M212,74.06V7.48h8.39V74.06Z"/><path class="cls-1" d="M243.37,9.49l-1.28,17.14-15.87,1.83-1-8.3,9.12-1,.36-5-2.37-1.28-1.91,2.28L224,9.76l6.3-7.57ZM228.23,30.74h8.3V74.06h-8.3Z"/><path class="cls-1" d="M69.73,108.91l-3.68-9.64-3.57,9H59.14L56,90.27l3.07-.51,2.28,12.95,3.34-8.49,3,.48,3.13,8.24,1.47-13.11,3.1.37-2.12,18.71Z"/><path class="cls-1" d="M76.73,89.52l12-1.23v8.86L81.88,99.5l-1-3,4.73-1.6v-3.2l-5.79.61v11.89l8-1.94.71,3-11.82,2.89Z"/><path class="cls-1" d="M90.61,81.24l3.1.07-.41,21L99.74,101V92.65l-2.86.21.06,3.64,2,.24-.41,3.11-4.67-.62L93.74,90l9.1-.64v14.24L90.1,106.15Z"/><path class="cls-1" d="M114.16,92.28l7.33-2,1.23,8.79-4,1.3-1-3,1.51-.48-.38-2.69-1.8.48-.62,9.51,6.82-1.64-1.13-20.72,3.1-.17,1.3,23.34-13.5,3.21Z"/><path class="cls-1" d="M127.94,89.52l12-1.23v8.86l-6.85,2.35-1-3,4.74-1.6v-3.2l-5.79.61v11.89l8-1.94.71,3-11.82,2.89Z"/><path class="cls-1" d="M144.57,107.78,141.3,89.93l3.07-.58,2.49,13.59,2.86-14.48,3,.62-3.68,18.7Z"/><path class="cls-1" d="M154.12,89.52l12-1.23v8.86l-6.85,2.35-1-3,4.73-1.6v-3.2l-5.79.61v11.89l8-1.94.71,3-11.82,2.89Z"/><path class="cls-1" d="M167.49,106.22V81.34h3.13v24.88Z"/><path class="cls-1" d="M172.8,106.45,172,91.77l3.1-.17.68,11.72h6.61V92.08h-3.17l.14,4.94h1.15v3.1h-4.19L176,88.94h9.47v17.51Z"/><path class="cls-1" d="M186.85,119.68V88.53l12.4-.51v16.36l-9.27.88v14.42ZM190,102.13l6.14-.58V91.26L190,91.5Z"/><path class="cls-1" d="M200.62,89.52l12-1.23v8.86l-6.85,2.35-1-3,4.74-1.6v-3.2l-5.8.61v11.89l8-1.94.72,3-11.83,2.89Z"/><path class="cls-1" d="M228.84,90.85,226.36,97l-3.58-1.64,1.33-2.83.58.28.61-1.44-1.63-2.11-6.58,5.9v11.11H214V88.77h3.1v2.15l7-6.31Z"/><path class="cls-1" d="M229.88,101l6.61-.85.37,3.1-3.65.48.07.82,6.95-.55V99.06h-10l.34-10.9,11.86-.68v6.16l-4.7,1.3-.82-3,2.42-.65v-.51l-5.72.34-.14,4.81h9.88v11l-12.92,1Z"/></svg>