<svg xmlns="http://www.w3.org/2000/svg" viewBox="0 0 209.75 38.82"><defs><style>.cls-1{fill:#fa1f6f;}</style></defs><g id="Capa_2" data-name="Capa 2"><g id="WORDMARK"><path class="cls-1" d="M0,36.87,9,4.25a1,1,0,0,1,.55-.64L17.13.09a1,1,0,0,1,1.39.65l9.91,36.13a1,1,0,0,1-1,1.27h-4a1,1,0,0,1-1-.75L20.83,31a1,1,0,0,0-1-.74H8.6a1,1,0,0,0-1,.74L6,37.39a1,1,0,0,1-1,.75H1A1,1,0,0,1,0,36.87Zm10.46-12H18a1,1,0,0,0,1-1.25L14.65,7.48h-.84L9.54,23.64A1,1,0,0,0,10.5,24.89Z"/><path class="cls-1" d="M33.14,37.14V4.8a1,1,0,0,1,1-1h9.23a1,1,0,0,1,1,.79l6.5,29.57h.83L58.23,4.59a1,1,0,0,1,1-.79h9.19a1,1,0,0,1,1,1V37.14a1,1,0,0,1-1,1H64.7a1,1,0,0,1-1-1V8.07h-.84L56.37,37.35a1,1,0,0,1-1,.79H47.18a1,1,0,0,1-1-.79L39.71,8.07h-.83V37.14a1,1,0,0,1-1,1H34.14A1,1,0,0,1,33.14,37.14Z"/><path class="cls-1" d="M89.35,38.82q-6.37,0-10.18-3.55T75.37,25V16.9q0-6.67,3.8-10.23T89.35,3.12q6.42,0,10.2,3.55t3.78,10.23V25q0,6.67-3.78,10.23T89.35,38.82Zm0-5.29a7.86,7.86,0,0,0,6-2.24,8.38,8.38,0,0,0,2.13-6.05V16.7a8.42,8.42,0,0,0-2.13-6.06,7.9,7.9,0,0,0-6-2.23,7.81,7.81,0,0,0-5.91,2.23A8.38,8.38,0,0,0,81.3,16.7v8.54a8.34,8.34,0,0,0,2.14,6.05A7.78,7.78,0,0,0,89.35,33.53Z"/><path class="cls-1" d="M106.78,36.62l9.14-15.28a1,1,0,0,0,0-1l-9-15a1,1,0,0,1,.86-1.52h4.37a1,1,0,0,1,.87.51l7,12.34h.84l7-12.34a1,1,0,0,1,.87-.51h4.42A1,1,0,0,1,134,5.32l-9,15a1,1,0,0,0,0,1l9.09,15.29a1,1,0,0,1-.86,1.51h-4.37a1,1,0,0,1-.88-.51L120.89,25h-.84l-7.12,12.64a1,1,0,0,1-.87.51h-4.42A1,1,0,0,1,106.78,36.62Z"/><path class="cls-1" d="M147.67,37.14v-27a1,1,0,0,0-1-1h-8.26a1,1,0,0,1-1-1V4.8a1,1,0,0,1,1-1H162.8a1,1,0,0,1,1,1V8.15a1,1,0,0,1-1,1h-8.25a1,1,0,0,0-1,1v27a1,1,0,0,1-1,1h-3.88A1,1,0,0,1,147.67,37.14Z"/><path class="cls-1" d="M168.41,37.14V4.8a1,1,0,0,1,1-1h3.94a1,1,0,0,1,1,1v27a1,1,0,0,0,1,1h14.08a1,1,0,0,1,1,1v3.35a1,1,0,0,1-1,1h-20A1,1,0,0,1,168.41,37.14Z"/><path class="cls-1" d="M195,37.14V4.8a1,1,0,0,1,1-1H200a1,1,0,0,1,1,1V37.14a1,1,0,0,1-1,1H196A1,1,0,0,1,195,37.14Z"/><path class="cls-1" d="M206.87,8.81a3,3,0,0,1-1.47-.36,2.75,2.75,0,0,1-1-1A2.88,2.88,0,0,1,204,6a2.91,2.91,0,0,1,.38-1.48,2.72,2.72,0,0,1,1-1,3.2,3.2,0,0,1,2.95,0,2.72,2.72,0,0,1,1,1A2.91,2.91,0,0,1,209.75,6a2.88,2.88,0,0,1-.38,1.48,2.75,2.75,0,0,1-1,1A3,3,0,0,1,206.87,8.81Zm0-.56a2.27,2.27,0,0,0,1.66-.62A2.25,2.25,0,0,0,209.16,6a2.29,2.29,0,1,0-4.57,0,2.16,2.16,0,0,0,2.28,2.29Zm-1-.8v-3h1.16a1.09,1.09,0,0,1,.77.24.8.8,0,0,1,.26.58.78.78,0,0,1-.13.46.85.85,0,0,1-.42.3v.14a.44.44,0,0,1,.34.15.64.64,0,0,1,.1.36v.8h-.56V6.63c0-.19-.1-.28-.29-.28h-.67v1.1Zm.56-1.62h.6a.44.44,0,0,0,.35-.14.45.45,0,0,0-.35-.77h-.6Z"/></g></g></svg>